<svg xmlns="http://www.w3.org/2000/svg" xmlns:xlink="http://www.w3.org/1999/xlink" width="4000" zoomAndPan="magnify" viewBox="0 0 3000 2999.999989" height="4000" preserveAspectRatio="xMidYMid meet" version="1.0"><defs><g/><clipPath id="c64202914d"><path d="M 525 0 L 2475 0 C 2614.238281 0 2747.773438 55.3125 2846.230469 153.769531 C 2944.6875 252.226562 3000 385.761719 3000 525 L 3000 2475 C 3000 2614.238281 2944.6875 2747.773438 2846.230469 2846.230469 C 2747.773438 2944.6875 2614.238281 3000 2475 3000 L 525 3000 C 385.761719 3000 252.226562 2944.6875 153.769531 2846.230469 C 55.3125 2747.773438 0 2614.238281 0 2475 L 0 525 C 0 385.761719 55.3125 252.226562 153.769531 153.769531 C 252.226562 55.3125 385.761719 0 525 0 Z M 525 0 " clip-rule="nonzero"/></clipPath><clipPath id="2bc6375456"><path d="M 1475.628906 1075 L 2611 1075 L 2611 2531 L 1475.628906 2531 Z M 1475.628906 1075 " clip-rule="nonzero"/></clipPath></defs><g clip-path="url(#c64202914d)"><path stroke-linecap="butt" transform="matrix(0.75, 0, 0, 0.75, 0.0000055, 0.0001)" fill="none" stroke-linejoin="miter" d="M 700.000069 -0.000133333 L 3300.000353 -0.000133333 C 3485.651415 -0.000133333 3663.69831 73.749875 3794.974366 205.025931 C 3926.250422 336.301987 4000.00043 514.348881 4000.00043 699.999943 L 4000.00043 3300.000227 C 4000.00043 3485.651289 3926.250422 3663.698184 3794.974366 3794.97424 C 3663.69831 3926.250296 3485.651415 4000.000304 3300.000353 4000.000304 L 700.000069 4000.000304 C 514.349007 4000.000304 336.302113 3926.250296 205.026057 3794.97424 C 73.750001 3663.698184 -0.00000733333 3485.651289 -0.00000733333 3300.000227 L -0.00000733333 699.999943 C -0.00000733333 514.348881 73.750001 336.301987 205.026057 205.025931 C 336.302113 73.749875 514.349007 -0.000133333 700.000069 -0.000133333 Z M 700.000069 -0.000133333 " stroke="#000000" stroke-width="400" stroke-opacity="1" stroke-miterlimit="4"/></g><g clip-path="url(#2bc6375456)"><path fill="#000000" d="M 2413.75 2389.1875 L 2413.75 2163.265625 C 2417.890625 2162.082031 2422.03125 2159.714844 2425.582031 2157.941406 C 2453.96875 2142.566406 2484.722656 2130.734375 2516.066406 2123.046875 C 2544.457031 2115.949219 2576.984375 2110.035156 2594.726562 2086.972656 C 2608.921875 2068.046875 2609.511719 2042.023438 2609.511719 2018.367188 C 2609.511719 1938.523438 2609.511719 1858.683594 2609.511719 1778.25 C 2609.511719 1714.96875 2609.511719 1651.09375 2609.511719 1587.8125 C 2609.511719 1574.800781 2611.878906 1558.238281 2608.921875 1545.820312 C 2605.964844 1535.175781 2598.273438 1525.121094 2590.585938 1517.433594 C 2574.617188 1500.871094 2552.734375 1490.226562 2531.445312 1483.128906 C 2497.140625 1471.890625 2459.882812 1466.570312 2428.539062 1448.828125 C 2423.804688 1446.460938 2419.074219 1443.503906 2414.34375 1441.730469 L 2414.34375 1216.398438 C 2414.34375 1138.332031 2351.0625 1075.640625 2273.585938 1075.640625 L 1616.515625 1075.640625 C 1538.449219 1075.640625 1475.757812 1138.921875 1475.757812 1216.398438 L 1475.757812 2389.777344 C 1475.757812 2467.847656 1539.039062 2530.539062 1616.515625 2530.539062 L 2272.402344 2530.539062 C 2350.46875 2529.945312 2413.75 2466.664062 2413.75 2389.1875 Z M 1581.03125 1802.496094 C 1581.03125 1602.003906 1743.671875 1439.363281 1944.164062 1439.363281 C 2144.65625 1439.363281 2307.296875 1602.003906 2307.296875 1802.496094 C 2307.296875 2002.988281 2144.65625 2165.628906 1944.164062 2165.628906 C 1743.671875 2165.628906 1581.03125 2002.988281 1581.03125 1802.496094 Z M 2190.195312 2359.023438 C 2190.195312 2331.226562 2212.667969 2308.753906 2240.464844 2308.753906 C 2268.261719 2308.753906 2290.734375 2331.226562 2290.734375 2359.023438 C 2290.734375 2386.820312 2268.261719 2409.296875 2240.464844 2409.296875 C 2212.667969 2409.296875 2190.195312 2386.820312 2190.195312 2359.023438 Z M 2190.195312 2359.023438 " fill-opacity="1" fill-rule="nonzero"/></g><path fill="#000000" d="M 1944.164062 2023.097656 C 1940.550781 2023.097656 1936.945312 2023.007812 1933.339844 2022.832031 C 1929.734375 2022.65625 1926.132812 2022.390625 1922.539062 2022.035156 C 1918.949219 2021.679688 1915.367188 2021.238281 1911.792969 2020.710938 C 1908.222656 2020.179688 1904.667969 2019.5625 1901.125 2018.859375 C 1897.585938 2018.152344 1894.0625 2017.363281 1890.5625 2016.484375 C 1887.058594 2015.609375 1883.582031 2014.644531 1880.125 2013.597656 C 1876.671875 2012.550781 1873.246094 2011.417969 1869.84375 2010.203125 C 1866.445312 2008.984375 1863.078125 2007.6875 1859.742188 2006.304688 C 1856.40625 2004.921875 1853.109375 2003.460938 1849.84375 2001.917969 C 1846.582031 2000.375 1843.355469 1998.75 1840.171875 1997.050781 C 1836.988281 1995.347656 1833.847656 1993.566406 1830.753906 1991.710938 C 1827.65625 1989.855469 1824.605469 1987.925781 1821.605469 1985.917969 C 1818.601562 1983.914062 1815.652344 1981.835938 1812.75 1979.683594 C 1809.851562 1977.535156 1807.007812 1975.3125 1804.214844 1973.023438 C 1801.425781 1970.734375 1798.691406 1968.375 1796.015625 1965.953125 C 1793.34375 1963.527344 1790.726562 1961.039062 1788.175781 1958.484375 C 1785.621094 1955.933594 1783.132812 1953.316406 1780.710938 1950.644531 C 1778.285156 1947.96875 1775.925781 1945.234375 1773.636719 1942.445312 C 1771.347656 1939.652344 1769.125 1936.808594 1766.976562 1933.910156 C 1764.824219 1931.007812 1762.746094 1928.058594 1760.742188 1925.054688 C 1758.734375 1922.054688 1756.804688 1919.003906 1754.949219 1915.910156 C 1753.09375 1912.8125 1751.3125 1909.671875 1749.609375 1906.488281 C 1747.910156 1903.304688 1746.285156 1900.078125 1744.742188 1896.816406 C 1743.199219 1893.550781 1741.738281 1890.253906 1740.355469 1886.917969 C 1738.972656 1883.582031 1737.675781 1880.214844 1736.457031 1876.816406 C 1735.242188 1873.414062 1734.109375 1869.988281 1733.0625 1866.535156 C 1732.015625 1863.078125 1731.050781 1859.601562 1730.175781 1856.097656 C 1729.296875 1852.597656 1728.507812 1849.074219 1727.800781 1845.535156 C 1727.097656 1841.992188 1726.480469 1838.4375 1725.949219 1834.867188 C 1725.421875 1831.292969 1724.980469 1827.710938 1724.625 1824.121094 C 1724.269531 1820.527344 1724.003906 1816.925781 1723.828125 1813.320312 C 1723.652344 1809.714844 1723.5625 1806.109375 1723.5625 1802.496094 C 1723.5625 1798.886719 1723.652344 1795.277344 1723.828125 1791.671875 C 1724.007812 1788.066406 1724.269531 1784.46875 1724.625 1780.875 C 1724.980469 1777.28125 1725.421875 1773.699219 1725.949219 1770.128906 C 1726.480469 1766.558594 1727.097656 1763 1727.800781 1759.460938 C 1728.507812 1755.917969 1729.296875 1752.398438 1730.175781 1748.894531 C 1731.050781 1745.394531 1732.015625 1741.914062 1733.0625 1738.460938 C 1734.109375 1735.003906 1735.242188 1731.578125 1736.457031 1728.179688 C 1737.675781 1724.78125 1738.972656 1721.414062 1740.355469 1718.078125 C 1741.738281 1714.742188 1743.199219 1711.441406 1744.742188 1708.179688 C 1746.285156 1704.914062 1747.910156 1701.691406 1749.609375 1698.507812 C 1751.3125 1695.324219 1753.09375 1692.183594 1754.949219 1689.085938 C 1756.804688 1685.988281 1758.734375 1682.941406 1760.742188 1679.9375 C 1762.746094 1676.9375 1764.824219 1673.984375 1766.976562 1671.085938 C 1769.125 1668.1875 1771.347656 1665.339844 1773.636719 1662.550781 C 1775.925781 1659.757812 1778.285156 1657.027344 1780.710938 1654.351562 C 1783.132812 1651.675781 1785.621094 1649.0625 1788.175781 1646.507812 C 1790.726562 1643.957031 1793.34375 1641.46875 1796.015625 1639.042969 C 1798.691406 1636.617188 1801.425781 1634.261719 1804.214844 1631.972656 C 1807.007812 1629.679688 1809.851562 1627.460938 1812.75 1625.308594 C 1815.652344 1623.160156 1818.601562 1621.082031 1821.605469 1619.074219 C 1824.605469 1617.070312 1827.65625 1615.136719 1830.753906 1613.28125 C 1833.847656 1611.425781 1836.988281 1609.648438 1840.171875 1607.945312 C 1843.355469 1606.242188 1846.582031 1604.621094 1849.84375 1603.078125 C 1853.109375 1601.535156 1856.40625 1600.070312 1859.742188 1598.6875 C 1863.078125 1597.308594 1866.445312 1596.007812 1869.84375 1594.792969 C 1873.246094 1593.574219 1876.671875 1592.445312 1880.125 1591.394531 C 1883.582031 1590.347656 1887.058594 1589.386719 1890.5625 1588.507812 C 1894.0625 1587.628906 1897.585938 1586.839844 1901.125 1586.136719 C 1904.667969 1585.429688 1908.222656 1584.8125 1911.792969 1584.285156 C 1915.367188 1583.753906 1918.949219 1583.3125 1922.539062 1582.960938 C 1926.132812 1582.605469 1929.734375 1582.339844 1933.339844 1582.164062 C 1936.945312 1581.984375 1940.550781 1581.898438 1944.164062 1581.898438 C 1947.773438 1581.898438 1951.382812 1581.984375 1954.988281 1582.164062 C 1958.59375 1582.339844 1962.191406 1582.605469 1965.785156 1582.960938 C 1969.378906 1583.3125 1972.960938 1583.753906 1976.53125 1584.285156 C 1980.101562 1584.8125 1983.660156 1585.429688 1987.199219 1586.136719 C 1990.742188 1586.839844 1994.261719 1587.628906 1997.765625 1588.507812 C 2001.265625 1589.386719 2004.746094 1590.347656 2008.199219 1591.394531 C 2011.65625 1592.445312 2015.082031 1593.574219 2018.480469 1594.792969 C 2021.878906 1596.007812 2025.246094 1597.308594 2028.582031 1598.6875 C 2031.917969 1600.070312 2035.21875 1601.535156 2038.480469 1603.078125 C 2041.746094 1604.621094 2044.96875 1606.242188 2048.152344 1607.945312 C 2051.335938 1609.648438 2054.476562 1611.425781 2057.574219 1613.28125 C 2060.671875 1615.136719 2063.71875 1617.070312 2066.722656 1619.074219 C 2069.722656 1621.082031 2072.675781 1623.160156 2075.574219 1625.308594 C 2078.472656 1627.460938 2081.320312 1629.679688 2084.109375 1631.972656 C 2086.902344 1634.261719 2089.632812 1636.617188 2092.308594 1639.042969 C 2094.984375 1641.46875 2097.597656 1643.957031 2100.152344 1646.507812 C 2102.703125 1649.0625 2105.191406 1651.675781 2107.617188 1654.351562 C 2110.042969 1657.027344 2112.398438 1659.757812 2114.691406 1662.550781 C 2116.980469 1665.339844 2119.199219 1668.1875 2121.351562 1671.085938 C 2123.5 1673.984375 2125.578125 1676.9375 2127.585938 1679.9375 C 2129.589844 1682.941406 2131.523438 1685.988281 2133.378906 1689.085938 C 2135.234375 1692.183594 2137.011719 1695.324219 2138.714844 1698.507812 C 2140.417969 1701.691406 2142.039062 1704.914062 2143.582031 1708.179688 C 2145.128906 1711.441406 2146.589844 1714.742188 2147.972656 1718.078125 C 2149.351562 1721.414062 2150.652344 1724.78125 2151.867188 1728.179688 C 2153.085938 1731.578125 2154.214844 1735.003906 2155.265625 1738.460938 C 2156.3125 1741.914062 2157.273438 1745.394531 2158.152344 1748.894531 C 2159.03125 1752.398438 2159.820312 1755.917969 2160.523438 1759.460938 C 2161.230469 1763 2161.847656 1766.558594 2162.375 1770.128906 C 2162.90625 1773.699219 2163.347656 1777.28125 2163.699219 1780.875 C 2164.054688 1784.46875 2164.320312 1788.066406 2164.496094 1791.671875 C 2164.675781 1795.277344 2164.761719 1798.886719 2164.761719 1802.496094 C 2164.761719 1806.109375 2164.675781 1809.714844 2164.496094 1813.320312 C 2164.320312 1816.925781 2164.054688 1820.527344 2163.699219 1824.121094 C 2163.347656 1827.710938 2162.90625 1831.292969 2162.375 1834.867188 C 2161.847656 1838.4375 2161.230469 1841.992188 2160.523438 1845.535156 C 2159.820312 1849.074219 2159.03125 1852.597656 2158.152344 1856.097656 C 2157.273438 1859.601562 2156.3125 1863.078125 2155.265625 1866.535156 C 2154.214844 1869.988281 2153.085938 1873.414062 2151.867188 1876.816406 C 2150.652344 1880.214844 2149.351562 1883.582031 2147.972656 1886.917969 C 2146.589844 1890.253906 2145.128906 1893.550781 2143.582031 1896.816406 C 2142.039062 1900.078125 2140.417969 1903.304688 2138.714844 1906.488281 C 2137.011719 1909.671875 2135.234375 1912.8125 2133.378906 1915.90625 C 2131.523438 1919.003906 2129.589844 1922.054688 2127.585938 1925.054688 C 2125.578125 1928.058594 2123.5 1931.007812 2121.351562 1933.910156 C 2119.199219 1936.808594 2116.980469 1939.652344 2114.6875 1942.445312 C 2112.398438 1945.234375 2110.042969 1947.96875 2107.617188 1950.644531 C 2105.191406 1953.316406 2102.703125 1955.933594 2100.152344 1958.484375 C 2097.597656 1961.039062 2094.984375 1963.527344 2092.308594 1965.949219 C 2089.632812 1968.375 2086.902344 1970.734375 2084.109375 1973.023438 C 2081.320312 1975.3125 2078.472656 1977.535156 2075.574219 1979.683594 C 2072.675781 1981.835938 2069.722656 1983.914062 2066.722656 1985.917969 C 2063.71875 1987.925781 2060.671875 1989.855469 2057.574219 1991.710938 C 2054.476562 1993.566406 2051.335938 1995.347656 2048.152344 1997.050781 C 2044.96875 1998.75 2041.746094 2000.375 2038.480469 2001.917969 C 2035.21875 2003.460938 2031.917969 2004.921875 2028.582031 2006.304688 C 2025.246094 2007.6875 2021.878906 2008.984375 2018.480469 2010.203125 C 2015.082031 2011.417969 2011.65625 2012.550781 2008.199219 2013.597656 C 2004.746094 2014.644531 2001.265625 2015.609375 1997.765625 2016.484375 C 1994.261719 2017.363281 1990.742188 2018.152344 1987.199219 2018.859375 C 1983.660156 2019.5625 1980.101562 2020.179688 1976.53125 2020.710938 C 1972.960938 2021.238281 1969.378906 2021.679688 1965.785156 2022.035156 C 1962.191406 2022.390625 1958.59375 2022.65625 1954.988281 2022.832031 C 1951.382812 2023.007812 1947.773438 2023.097656 1944.164062 2023.097656 Z M 1944.164062 2023.097656 " fill-opacity="1" fill-rule="nonzero"/><g fill="#000000" fill-opacity="1"><g transform="translate(374.93465, 1649.238514)"><g><path d="M 1154.578125 -10.125 L 1112.640625 236.234375 C 1061.878906 250.734375 1004.335938 257.785156 940.015625 257.390625 C 875.703125 257.003906 810.789062 251.234375 745.28125 240.078125 C 645.5625 223.097656 556.410156 191.316406 477.828125 144.734375 C 399.253906 98.160156 333.675781 40.21875 281.09375 -29.09375 C 228.519531 -98.40625 191.863281 -175.566406 171.125 -260.578125 C 150.394531 -345.597656 148.101562 -435.523438 164.25 -530.359375 C 180.394531 -625.179688 212.316406 -709.273438 260.015625 -782.640625 C 307.722656 -856.003906 367.851562 -916.6875 440.40625 -964.6875 C 512.96875 -1012.695312 594.03125 -1045.675781 683.59375 -1063.625 C 773.164062 -1081.570312 867.8125 -1082.054688 967.53125 -1065.078125 C 1022.289062 -1055.753906 1078.78125 -1041.859375 1137 -1023.390625 C 1195.21875 -1004.921875 1244.660156 -982.164062 1285.328125 -955.125 L 1244.625 -716.09375 C 1207.09375 -755.675781 1159.640625 -788.648438 1102.265625 -815.015625 C 1044.890625 -841.390625 988.335938 -859.320312 932.609375 -868.8125 C 844.617188 -883.789062 762.832031 -877.59375 687.25 -850.21875 C 611.675781 -822.851562 548.46875 -778.039062 497.625 -715.78125 C 446.78125 -653.519531 413.863281 -578.394531 398.875 -490.40625 C 384.0625 -403.394531 390.335938 -322.097656 417.703125 -246.515625 C 445.078125 -170.929688 489.851562 -107.472656 552.03125 -56.140625 C 614.21875 -4.804688 689.304688 28.347656 777.296875 43.328125 C 846.710938 55.148438 914.859375 56.695312 981.734375 47.96875 C 1048.609375 39.238281 1106.222656 19.875 1154.578125 -10.125 Z M 1154.578125 -10.125 "/></g></g></g></svg>
