<?xml version="1.0" standalone="no"?>
<!DOCTYPE svg PUBLIC "-//W3C//DTD SVG 20010904//EN"
 "http://www.w3.org/TR/2001/REC-SVG-20010904/DTD/svg10.dtd">
<svg version="1.0" xmlns="http://www.w3.org/2000/svg"
 width="4000.000000pt" height="4000.000000pt" viewBox="0 0 4000.000000 4000.000000"
 preserveAspectRatio="xMidYMid meet">

<g transform="translate(0.000000,4000.000000) scale(0.100000,-0.100000)"
fill="#000000" stroke="none">
<path d="M19785 28594 c-555 -58 -1055 -302 -1468 -716 -82 -82 -147 -152
-145 -157 2 -4 135 -130 296 -279 l294 -272 76 81 c252 268 572 437 909 480
116 14 364 6 473 -16 304 -61 503 -215 582 -450 19 -59 23 -90 23 -195 0 -112
-3 -131 -27 -187 -72 -170 -208 -311 -568 -593 -454 -354 -646 -575 -740 -850
-48 -142 -50 -180 -50 -902 l0 -678 -8250 0 -8250 0 0 -530 0 -530 17060 0
17060 0 0 530 0 530 -8340 0 -8341 0 3 678 3 677 23 70 c13 39 41 102 62 142
109 204 222 313 735 708 192 147 376 324 454 435 70 99 125 210 158 317 26 83
27 99 27 283 0 216 -12 302 -66 463 -146 441 -520 754 -1062 892 -219 55 -330
68 -626 70 -146 2 -283 1 -305 -1z"/>
<path d="M31600 21685 c-493 -61 -857 -221 -1135 -500 -258 -259 -404 -592
-445 -1014 -5 -57 -10 -370 -10 -697 l0 -594 -395 0 -395 0 0 -540 0 -540 395
0 395 0 0 -1810 0 -1810 580 0 580 0 0 1810 0 1810 435 0 435 0 0 540 0 540
-435 0 -436 0 3 613 c3 593 4 614 25 689 65 231 214 397 418 468 95 33 237 51
338 44 l87 -7 0 507 0 506 -167 -1 c-93 -1 -215 -7 -273 -14z"/>
<path d="M10110 17865 l0 -3695 605 0 605 0 -2 3693 -3 3692 -602 3 -603 2 0
-3695z"/>
<path d="M21897 21553 c-4 -3 -7 -1666 -7 -3695 l0 -3688 570 0 570 0 0 1629
0 1629 26 88 c91 315 346 539 684 600 104 19 313 18 408 -2 347 -71 576 -317
612 -656 6 -56 10 -723 10 -1690 l0 -1598 570 0 570 0 0 1643 c0 996 -4 1697
-10 1781 -27 372 -139 658 -361 921 -163 195 -419 361 -698 455 -119 40 -344
87 -488 101 -175 17 -495 7 -622 -20 -213 -45 -409 -121 -586 -226 -55 -33
-103 -61 -107 -63 -5 -2 -8 627 -8 1397 l0 1401 -563 0 c-310 0 -567 -3 -570
-7z"/>
<path d="M27625 21470 c-348 -51 -619 -331 -654 -674 -35 -352 167 -662 507
-781 142 -49 334 -57 477 -20 85 23 229 97 302 155 121 97 224 257 257 400 31
131 14 321 -40 454 -52 129 -179 277 -302 355 -152 96 -360 139 -547 111z"/>
<path d="M6665 21330 c-1166 -85 -2150 -574 -2810 -1395 -495 -615 -768 -1411
-766 -2229 1 -343 29 -615 92 -896 215 -948 789 -1742 1621 -2243 440 -265
929 -439 1479 -526 484 -77 1197 -63 1784 35 283 47 665 155 858 243 l67 31 0
690 c0 380 -2 690 -5 690 -3 0 -31 -21 -63 -47 -239 -195 -609 -370 -987 -466
-344 -88 -544 -111 -945 -112 -270 0 -321 3 -446 23 -847 136 -1503 605 -1859
1327 -190 385 -275 770 -275 1235 1 773 317 1485 863 1946 388 326 864 523
1405 580 198 21 547 14 762 -15 283 -39 589 -116 820 -208 144 -56 369 -171
469 -238 42 -28 82 -54 89 -58 9 -7 12 129 12 663 l0 671 -52 23 c-80 35 -287
101 -428 135 -237 57 -538 104 -845 131 -165 14 -694 21 -840 10z"/>
<path d="M18920 19615 l0 -725 -395 0 -395 0 2 -542 3 -543 392 -3 392 -2 3
-1218 3 -1217 23 -109 c96 -451 326 -751 726 -946 167 -82 412 -151 631 -180
157 -20 422 -32 573 -25 l152 7 0 539 0 539 -42 -7 c-24 -4 -119 -7 -213 -7
-198 -1 -279 14 -395 71 -130 63 -214 167 -262 323 l-23 75 -3 1078 -3 1077
496 0 495 0 0 545 0 545 -495 0 -495 0 0 725 0 725 -585 0 -585 0 0 -725z"/>
<path d="M13050 19663 c-229 -39 -445 -226 -523 -453 l-22 -65 -3 -2925 c-1
-1982 1 -2941 8 -2974 15 -69 58 -173 94 -227 91 -134 203 -220 361 -276 l80
-28 1655 -3 c1867 -3 1738 -8 1909 75 153 73 277 213 337 378 38 104 44 208
44 773 l0 533 98 46 c149 70 255 107 426 152 87 23 182 53 211 67 76 35 137
98 166 170 l24 59 5 1215 c4 902 2 1225 -6 1253 -41 132 -193 239 -445 312
-270 79 -327 98 -401 138 l-77 40 -4 596 c-4 644 -2 629 -60 754 -79 174 -215
298 -399 365 l-73 27 -1690 1 c-929 1 -1701 0 -1715 -3z m1890 -1744 c266 -33
523 -125 738 -265 465 -303 749 -786 791 -1347 69 -912 -616 -1731 -1534
-1837 -487 -55 -979 98 -1341 417 -402 355 -608 833 -591 1368 8 238 44 405
134 618 161 383 459 696 840 883 174 85 404 152 578 167 92 8 306 6 385 -4z
m1306 -4165 c158 -65 199 -269 79 -389 -150 -150 -405 -48 -405 163 0 106 42
174 135 218 59 28 135 31 191 8z"/>
<path d="M14555 17234 c-335 -59 -631 -287 -775 -598 -130 -280 -130 -606 1
-885 94 -202 240 -361 434 -472 398 -230 911 -168 1247 150 339 319 426 828
215 1247 -204 404 -672 637 -1122 558z"/>
<path d="M27140 16530 l0 -2360 605 0 605 0 0 2360 0 2360 -605 0 -605 0 0
-2360z"/>
<path d="M32360 18877 c0 -2 376 -1040 835 -2306 459 -1267 835 -2314 835
-2328 0 -70 -428 -1144 -526 -1321 -55 -98 -148 -214 -216 -271 -156 -129
-370 -183 -590 -149 l-88 14 0 -562 c0 -523 1 -562 17 -568 10 -4 93 -12 185
-18 276 -19 563 14 773 89 157 56 335 166 464 287 145 136 308 367 434 613
118 232 181 385 338 823 49 139 751 2028 1116 3005 96 259 288 772 425 1140
458 1229 566 1520 573 1538 7 16 -26 17 -612 17 l-619 0 -402 -1232 c-448
-1375 -521 -1615 -625 -2037 l-33 -135 -57 230 c-108 435 -219 803 -599 1987
l-382 1187 -623 0 c-343 0 -623 -1 -623 -3z"/>
</g>
</svg>